<svg width="115" height="24" viewBox="0 0 115 24" fill="none" xmlns="http://www.w3.org/2000/svg">
<g clip-path="url(#clip0_1_2)">
<path d="M48.069 15.41L52.8079 22H48.9206L44.5889 15.8912H40.5904V22H37.5175V3.89588H44.2557C46.9954 3.89588 48.9576 4.36483 50.1423 5.30274C51.3517 6.21597 51.9564 7.70922 51.9564 9.7825C51.9564 12.769 50.6606 14.6448 48.069 15.41ZM44.3668 13.1516C46.0698 13.1516 47.2422 12.8924 47.8839 12.3741C48.5256 11.8558 48.8465 10.9796 48.8465 9.74547C48.8465 8.56075 48.5256 7.75859 47.8839 7.339C47.2422 6.89472 46.0945 6.67259 44.4408 6.67259H40.5904V13.1516H44.3668ZM68.788 16.3725H57.9774C58.0514 17.3598 58.508 18.162 59.3472 18.779C60.1864 19.3961 61.1613 19.7046 62.272 19.7046C64.0244 19.7046 65.3326 19.1616 66.1964 18.0756L67.8625 19.8897C66.3815 21.4447 64.444 22.2221 62.0499 22.2221C60.0753 22.2221 58.4217 21.5681 57.0888 20.2599C55.756 18.9518 55.0896 17.2241 55.0896 15.0767C55.0896 12.9788 55.7684 11.2757 57.1259 9.96761C58.4834 8.65947 60.1247 8.0054 62.0499 8.0054C63.9751 8.0054 65.5794 8.58543 66.8628 9.74547C68.1463 10.9055 68.788 12.4481 68.788 14.3733V16.3725ZM65.9002 14.0771C65.9002 12.9665 65.5424 12.0902 64.8266 11.4485C64.1355 10.8068 63.2346 10.4859 62.1239 10.4859C61.0132 10.4859 60.0383 10.8191 59.1991 11.4855C58.3846 12.152 57.9774 13.0158 57.9774 14.0771H65.9002ZM84.8152 16.3725H74.0045C74.0786 17.3598 74.5352 18.162 75.3744 18.779C76.2136 19.3961 77.1885 19.7046 78.2992 19.7046C80.0516 19.7046 81.3597 19.1616 82.2236 18.0756L83.8896 19.8897C82.4087 21.4447 80.4712 22.2221 78.077 22.2221C76.1025 22.2221 74.4488 21.5681 73.116 20.2599C71.7832 18.9518 71.1168 17.2241 71.1168 15.0767C71.1168 12.9788 71.7955 11.2757 73.153 9.96761C74.5105 8.65947 76.1519 8.0054 78.077 8.0054C80.0022 8.0054 81.6065 8.58543 82.89 9.74547C84.1735 10.9055 84.8152 12.4481 84.8152 14.3733V16.3725ZM81.9274 14.0771C81.9274 12.9665 81.5695 12.0902 80.8537 11.4485C80.1627 10.8068 79.2618 10.4859 78.1511 10.4859C77.0404 10.4859 76.0655 10.8191 75.2263 11.4855C74.4118 12.152 74.0045 13.0158 74.0045 14.0771H81.9274ZM90.9202 22H88.0325V2.7852H90.9202V22ZM98.0395 22H95.1518V8.22754H98.0395V22ZM94.7815 4.15504C94.7815 3.6614 94.9543 3.24181 95.2998 2.89627C95.6701 2.52604 96.1143 2.34093 96.6327 2.34093C97.1263 2.34093 97.5459 2.52604 97.8914 2.89627C98.2617 3.24181 98.4468 3.6614 98.4468 4.15504C98.4468 4.67336 98.2617 5.11763 97.8914 5.48786C97.5459 5.8334 97.1263 6.00618 96.6327 6.00618C96.1143 6.00618 95.6824 5.82106 95.3369 5.45084C94.9666 5.10529 94.7815 4.67336 94.7815 4.15504ZM104.455 8.22754L107.417 12.7443L110.49 8.22754H113.933L109.083 14.9657L114.118 22H110.564L107.269 17.4092L104.048 22H100.642L105.566 14.9657L100.901 8.22754H104.455Z" fill="#133052"/>
<path d="M12 24C18.6274 24 24 18.6274 24 12C24 5.37258 18.6274 0 12 0C5.37258 0 0 5.37258 0 12C0 18.6274 5.37258 24 12 24Z" fill="#133052"/>
<path d="M12.1622 8.75671C13.5056 8.75671 14.5946 7.66767 14.5946 6.32428C14.5946 4.98089 13.5056 3.89185 12.1622 3.89185C10.8188 3.89185 9.72977 4.98089 9.72977 6.32428C9.72977 7.66767 10.8188 8.75671 12.1622 8.75671Z" fill="white"/>
<path d="M12.1622 20.108C13.5056 20.108 14.5946 19.019 14.5946 17.6756C14.5946 16.3322 13.5056 15.2432 12.1622 15.2432C10.8188 15.2432 9.72977 16.3322 9.72977 17.6756C9.72977 19.019 10.8188 20.108 12.1622 20.108Z" fill="white"/>
<path d="M5.99994 14.2702C7.34333 14.2702 8.43237 13.1812 8.43237 11.8378C8.43237 10.4944 7.34333 9.40537 5.99994 9.40537C4.65655 9.40537 3.56751 10.4944 3.56751 11.8378C3.56751 13.1812 4.65655 14.2702 5.99994 14.2702Z" fill="white"/>
<path d="M17.6756 14.2702C19.019 14.2702 20.108 13.1812 20.108 11.8378C20.108 10.4944 19.019 9.40537 17.6756 9.40537C16.3322 9.40537 15.2432 10.4944 15.2432 11.8378C15.2432 13.1812 16.3322 14.2702 17.6756 14.2702Z" fill="white"/>
<path d="M11 23H25" stroke="#133052" stroke-width="2"/>
</g>
<defs>
<clipPath id="clip0_1_2">
<rect width="115" height="24" fill="white"/>
</clipPath>
</defs>
</svg>
