<svg width="48" height="14" viewBox="0 0 48 14" fill="none" xmlns="http://www.w3.org/2000/svg">
<path d="M23.8569 8.60151L25.5891 10.9218H24.1682L22.5848 8.77094H21.1232V10.9218H20V4.54749H22.463C23.4645 4.54749 24.1817 4.7126 24.6148 5.04283C25.0569 5.36437 25.2779 5.89013 25.2779 6.62012C25.2779 7.67164 24.8042 8.33209 23.8569 8.60151ZM22.5036 7.80635C23.1261 7.80635 23.5547 7.71509 23.7893 7.5326C24.0238 7.35011 24.1411 7.04161 24.1411 6.60708C24.1411 6.18995 24.0238 5.90751 23.7893 5.75978C23.5547 5.60335 23.1352 5.52514 22.5307 5.52514H21.1232V7.80635H22.5036ZM31.4304 8.9404H27.4788C27.5058 9.28802 27.6727 9.57047 27.9795 9.78771C28.2862 10.005 28.6426 10.1136 29.0486 10.1136C29.6891 10.1136 30.1673 9.92242 30.4831 9.54005L31.0921 10.1788C30.5507 10.7263 29.8425 11 28.9674 11C28.2456 11 27.6412 10.7697 27.154 10.3091C26.6668 9.84855 26.4232 9.24024 26.4232 8.48416C26.4232 7.74551 26.6713 7.14586 27.1675 6.68529C27.6637 6.22471 28.2637 5.99441 28.9674 5.99441C29.6711 5.99441 30.2575 6.19864 30.7267 6.60708C31.1958 7.01552 31.4304 7.55865 31.4304 8.2365V8.9404ZM30.3748 8.13221C30.3748 7.74118 30.244 7.43264 29.9824 7.2067C29.7298 6.98076 29.4004 6.86778 28.9944 6.86778C28.5885 6.86778 28.2321 6.9851 27.9253 7.21973C27.6276 7.4544 27.4788 7.75854 27.4788 8.13221H30.3748ZM37.2889 8.9404H33.3372C33.3643 9.28802 33.5312 9.57047 33.8379 9.78771C34.1447 10.005 34.5011 10.1136 34.9071 10.1136C35.5476 10.1136 36.0258 9.92242 36.3415 9.54005L36.9505 10.1788C36.4092 10.7263 35.701 11 34.8258 11C34.1041 11 33.4996 10.7697 33.0124 10.3091C32.5252 9.84855 32.2816 9.24024 32.2816 8.48416C32.2816 7.74551 32.5297 7.14586 33.0259 6.68529C33.5222 6.22471 34.1221 5.99441 34.8258 5.99441C35.5296 5.99441 36.116 6.19864 36.5851 6.60708C37.0543 7.01552 37.2889 7.55865 37.2889 8.2365V8.9404ZM36.2333 8.13221C36.2333 7.74118 36.1025 7.43264 35.8408 7.2067C35.5882 6.98076 35.2589 6.86778 34.8529 6.86778C34.4469 6.86778 34.0906 6.9851 33.7838 7.21973C33.4861 7.4544 33.3372 7.75854 33.3372 8.13221H36.2333ZM39.5204 10.9218H38.4649V4.15642H39.5204V10.9218ZM42.1228 10.9218H41.0672V6.07263H42.1228V10.9218ZM40.9319 4.63873C40.9319 4.46493 40.995 4.31719 41.1213 4.19553C41.2567 4.06518 41.4191 4 41.6085 4C41.789 4 41.9424 4.06518 42.0686 4.19553C42.204 4.31719 42.2717 4.46493 42.2717 4.63873C42.2717 4.82123 42.204 4.97765 42.0686 5.10801C41.9424 5.22967 41.789 5.29051 41.6085 5.29051C41.4191 5.29051 41.2612 5.22533 41.1349 5.09497C40.9995 4.97331 40.9319 4.82123 40.9319 4.63873ZM44.4679 6.07263L45.5506 7.66294L46.6738 6.07263H47.9324L46.1595 8.44508L48 10.9218H46.7009L45.4965 9.30542L44.3191 10.9218H43.0741L44.874 8.44508L43.1688 6.07263H44.4679Z" fill="white"/>
<path d="M11 3H7L8.5 4.35H11C12 4.35 13 4.8 13 6.15C13 7.05 12 7.5 11.5 7.5H7V12H8.5V8.85H10.5L13 12H15L12.5 8.85C14 8.4 14.5 7.5 14.5 6.15C14.5 3.27 12.5 3 11 3Z" fill="white"/>
<path d="M15.25 3.33155L14.25 2.33155L0 13.3316H12L15.25 3.33155Z" fill="url(#paint0_linear_6_105)"/>
<rect x="14.6515" y="0.906224" width="3.02066" height="0.990309" rx="0.495154" transform="rotate(46.4028 14.6515 0.906224)" fill="#273D50"/>
<rect x="14.2856" y="1.25467" width="3.02066" height="0.485" transform="rotate(46.4028 14.2856 1.25467)" fill="#273D50"/>
<path d="M16.0198 0.437518L17.2696 1.75007L16.3189 2.23823L15.4857 1.3632L16.0198 0.437518Z" fill="#273D50"/>
<defs>
<linearGradient id="paint0_linear_6_105" x1="7.625" y1="3.82398" x2="7.625" y2="11.8391" gradientUnits="userSpaceOnUse">
<stop stop-color="#5281AB"/>
<stop offset="1" stop-color="#5081AB" stop-opacity="0"/>
</linearGradient>
</defs>
</svg>
